<svg width="61" height="60" viewBox="0 0 61 60" fill="none" xmlns="http://www.w3.org/2000/svg">
<circle cx="30.5" cy="30" r="30" fill="#5C4EF7"/>
<path d="M38.5 30V40H22.5V30" stroke="white" stroke-width="2" stroke-linecap="round" stroke-linejoin="round"/>
<path d="M40.5 25H20.5V30H40.5V25Z" stroke="white" stroke-width="2" stroke-linecap="round" stroke-linejoin="round"/>
<path d="M30.5 40V25" stroke="white" stroke-width="2" stroke-linecap="round" stroke-linejoin="round"/>
<path d="M30.5 25H35C35.663 25 36.2989 24.7366 36.7678 24.2678C37.2366 23.7989 37.5 23.163 37.5 22.5C37.5 21.837 37.2366 21.2011 36.7678 20.7322C36.2989 20.2634 35.663 20 35 20C31.5 20 30.5 25 30.5 25Z" stroke="white" stroke-width="2" stroke-linecap="round" stroke-linejoin="round"/>
<path d="M30.5 25H26C25.337 25 24.7011 24.7366 24.2322 24.2678C23.7634 23.7989 23.5 23.163 23.5 22.5C23.5 21.837 23.7634 21.2011 24.2322 20.7322C24.7011 20.2634 25.337 20 26 20C29.5 20 30.5 25 30.5 25Z" stroke="white" stroke-width="2" stroke-linecap="round" stroke-linejoin="round"/>
</svg>
